<svg xmlns="http://www.w3.org/2000/svg" width="24" height="24"><path fill="#ddd" fill-opacity=".02" d="M0 0h24v24H0z"/><path d="M22.398 5.55a8.583 8.583 0 0 1-2.449.673 4.252 4.252 0 0 0 1.875-2.364 8.66 8.66 0 0 1-2.71 1.04A4.251 4.251 0 0 0 16 3.546a4.27 4.27 0 0 0-4.266 4.27c0 .335.036.66.11.972a12.126 12.126 0 0 1-8.797-4.46 4.259 4.259 0 0 0-.578 2.148c0 1.48.754 2.785 1.898 3.55a4.273 4.273 0 0 1-1.933-.535v.055a4.27 4.27 0 0 0 3.425 4.183c-.359.098-.734.149-1.125.149-.273 0-.543-.027-.804-.074a4.276 4.276 0 0 0 3.988 2.965 8.562 8.562 0 0 1-5.3 1.824 8.82 8.82 0 0 1-1.02-.059 12.088 12.088 0 0 0 6.543 1.918c7.851 0 12.14-6.504 12.14-12.144 0-.184-.004-.368-.011-.551a8.599 8.599 0 0 0 2.128-2.207zm0 0" fill="#777"/></svg>